<svg xmlns="http://www.w3.org/2000/svg" viewBox="0 0 436 436"><defs><style>.cls-1{fill:none;stroke:#040000;stroke-miterlimit:10;stroke-width:7px;}.cls-2{font-size:32px;fill:#040000;}.cls-2,.cls-3{font-family:LeagueGothic-Regular, League Gothic;}.cls-3{font-size:60px;fill:#231815;}</style></defs><g id="デザイン要素"><path class="cls-1" d="M170.8,250.07a122.76,122.76,0,0,1,245.51,0" transform="translate(-75.56 -37.31)"/><circle class="cls-1" cx="293.56" cy="255.3" r="214.5" transform="matrix(1, 0, 0, 1, -75.87, -36.94)"/></g><g id="_テキストをここに入力_" data-name="[テキストをここに入力]"><text id="Lorem_Ipsum_Dolor" data-name="Lorem Ipsum Dolor" class="cls-2" transform="translate(68.97 181.34) rotate(-75.96)">R</text><text class="cls-2" transform="translate(77.29 154.49) rotate(-65.41)">Y</text><text class="cls-2" transform="matrix(0.57, -0.82, 0.82, 0.57, 90.08, 130.14)">O</text><text class="cls-2" transform="matrix(0.71, -0.71, 0.71, 0.71, 107.12, 108.44)">T</text><text class="cls-2" transform="translate(126.47 91.05) rotate(-34.74)">A</text><text class="cls-2" transform="matrix(0.91, -0.41, 0.41, 0.91, 150.74, 76.12)">R</text><text class="cls-2" transform="matrix(0.97, -0.23, 0.23, 0.97, 176.98, 66.09)">O</text><text class="cls-2" transform="translate(204.53 61.17) rotate(-4.09)"> </text><text class="cls-2" transform="translate(226.09 60.62) rotate(5.89)">M</text><text class="cls-2" transform="translate(257.7 65.8) rotate(16.22)">I</text><text class="cls-2" transform="translate(279.12 73.27) rotate(25.76)">Y</text><text class="cls-2" transform="translate(302.55 86.09) rotate(36.02)">A</text><text class="cls-2" transform="translate(324.66 104.08) rotate(46.71)">K</text><text class="cls-2" transform="matrix(0.55, 0.83, -0.83, 0.55, 343.07, 126.02)">I</text><text class="cls-2" transform="translate(354.64 145.54) rotate(65.67)">T</text><text class="cls-2" transform="translate(364.12 169.74) rotate(75.88)">A</text><text id="クリックして入力" x="-75.56" y="-37.31"/><g id="felis_aliquam" data-name="felis aliquam"><text class="cls-2" transform="translate(71.38 324.92) rotate(52.34)">F</text><text class="cls-2" transform="translate(90.7 347.34) rotate(42.73)">R</text><text class="cls-2" transform="matrix(0.84, 0.54, -0.54, 0.84, 115.05, 367.46)">O</text><text class="cls-2" transform="translate(142.43 383.12) rotate(22.17)">M</text><text class="cls-2" transform="translate(175.99 394.51) rotate(12.55)"> </text><text class="cls-2" transform="matrix(1, 0.06, -0.06, 1, 200.39, 398.65)">N</text><text class="cls-2" transform="translate(232.85 398.81) rotate(-5.58)">I</text><text class="cls-2" transform="translate(258.16 394.95) rotate(-13.69)">I</text><text class="cls-2" transform="translate(282.95 387.51) rotate(-22.81)">G</text><text class="cls-2" transform="matrix(0.84, -0.54, 0.54, 0.84, 311.35, 373.67)">A</text><text class="cls-2" transform="matrix(0.74, -0.67, 0.67, 0.74, 336.6, 355.34)">T</text><text class="cls-2" transform="translate(357.21 334.44) rotate(-51.94)">A</text></g><text x="-75.56" y="-37.31"/><text x="-75.56" y="-37.31"/><text class="cls-3" transform="translate(110.81 234.04)">MEVIUS GOLD</text></g></svg>